<mxfile host="app.diagrams.net" modified="2023-07-19T10:13:04.596Z" agent="Mozilla/5.0 (X11; Linux x86_64) AppleWebKit/537.36 (KHTML, like Gecko) Chrome/115.0.0.0 Safari/537.36" etag="97H0l_an5ZMGxOEGpNyG" version="21.6.2" type="google">
  <diagram name="Page-1" id="aKnfNAv9awX-67q2zJcG">
    <mxGraphModel grid="0" page="1" gridSize="10" guides="1" tooltips="1" connect="1" arrows="1" fold="1" pageScale="1" pageWidth="850" pageHeight="1100" math="0" shadow="0">
      <root>
        <mxCell id="0" />
        <mxCell id="1" parent="0" />
        <mxCell id="7uJ_mHm1GzxODC4h63zU-1" value="" style="endArrow=classic;html=1;rounded=0;fontFamily=Helvetica;fontSize=10;dashed=1;exitX=0;exitY=0.5;exitDx=0;exitDy=0;" edge="1" parent="1" source="7uJ_mHm1GzxODC4h63zU-17" target="7uJ_mHm1GzxODC4h63zU-6">
          <mxGeometry width="50" height="50" relative="1" as="geometry">
            <mxPoint x="414" y="210" as="sourcePoint" />
            <mxPoint x="340" y="194" as="targetPoint" />
          </mxGeometry>
        </mxCell>
        <mxCell id="7uJ_mHm1GzxODC4h63zU-2" value="2) execute callback" style="edgeLabel;html=1;align=left;verticalAlign=middle;resizable=0;points=[];fontSize=12;fontFamily=Helvetica;" connectable="0" vertex="1" parent="7uJ_mHm1GzxODC4h63zU-1">
          <mxGeometry x="0.4936" relative="1" as="geometry">
            <mxPoint x="-28" y="19" as="offset" />
          </mxGeometry>
        </mxCell>
        <mxCell id="7uJ_mHm1GzxODC4h63zU-3" value="" style="group" connectable="0" vertex="1" parent="1">
          <mxGeometry x="30" y="130" width="386" height="216" as="geometry" />
        </mxCell>
        <mxCell id="7uJ_mHm1GzxODC4h63zU-6" value="Quarkus Workflow Project" style="rounded=1;whiteSpace=wrap;html=1;" vertex="1" parent="7uJ_mHm1GzxODC4h63zU-3">
          <mxGeometry x="49" y="43" width="250" height="60" as="geometry" />
        </mxCell>
        <mxCell id="7uJ_mHm1GzxODC4h63zU-11" value="" style="endArrow=classic;html=1;rounded=0;fontFamily=Helvetica;fontSize=10;dashed=1;entryX=0.5;entryY=1;entryDx=0;entryDy=0;" edge="1" parent="7uJ_mHm1GzxODC4h63zU-3" target="7uJ_mHm1GzxODC4h63zU-17">
          <mxGeometry width="50" height="50" relative="1" as="geometry">
            <mxPoint x="170" y="155" as="sourcePoint" />
            <mxPoint x="600" y="140" as="targetPoint" />
            <Array as="points">
              <mxPoint x="170" y="190" />
              <mxPoint x="590" y="190" />
            </Array>
          </mxGeometry>
        </mxCell>
        <mxCell id="7uJ_mHm1GzxODC4h63zU-29" value="Job Service Quarkus Extension" style="rounded=1;whiteSpace=wrap;html=1;" vertex="1" parent="7uJ_mHm1GzxODC4h63zU-3">
          <mxGeometry x="49" y="128" width="250" height="20" as="geometry" />
        </mxCell>
        <mxCell id="7uJ_mHm1GzxODC4h63zU-15" value="" style="group" connectable="0" vertex="1" parent="1">
          <mxGeometry x="711" y="180" width="282" height="222" as="geometry" />
        </mxCell>
        <mxCell id="7uJ_mHm1GzxODC4h63zU-17" value="Job Service" style="rounded=1;whiteSpace=wrap;html=1;" vertex="1" parent="7uJ_mHm1GzxODC4h63zU-15">
          <mxGeometry x="-151" y="-7" width="120" height="60" as="geometry" />
        </mxCell>
        <mxCell id="7uJ_mHm1GzxODC4h63zU-19" value="&lt;pre style=&quot;background-color: rgb(255, 255, 255); color: rgb(8, 8, 8); font-family: &amp;quot;JetBrains Mono&amp;quot;, monospace;&quot;&gt;&lt;br&gt;&lt;/pre&gt;" style="text;html=1;align=center;verticalAlign=middle;resizable=0;points=[];autosize=1;strokeColor=none;fillColor=none;fontSize=12;fontFamily=Helvetica;" vertex="1" parent="7uJ_mHm1GzxODC4h63zU-15">
          <mxGeometry x="-103" y="-35" width="20" height="50" as="geometry" />
        </mxCell>
        <mxCell id="7uJ_mHm1GzxODC4h63zU-30" value="1) interact via:" style="text;html=1;strokeColor=none;fillColor=none;align=left;verticalAlign=middle;whiteSpace=wrap;rounded=0;" vertex="1" parent="1">
          <mxGeometry x="363" y="318" width="310" height="30" as="geometry" />
        </mxCell>
        <mxCell id="7uJ_mHm1GzxODC4h63zU-40" value="" style="shape=cross;whiteSpace=wrap;html=1;fillColor=#33001A;strokeColor=#000000;gradientColor=default;" vertex="1" parent="1">
          <mxGeometry x="192" y="239" width="15" height="15" as="geometry" />
        </mxCell>
        <mxCell id="pni-8TUo_zQlgqkMD-UF-1" value="&lt;ul&gt;&lt;li&gt;&lt;span style=&quot;background-color: initial;&quot;&gt;cloud events + knative eventing system&lt;/span&gt;&lt;/li&gt;&lt;li&gt;&lt;span style=&quot;background-color: initial;&quot;&gt;cloud events + kafka messaging system&lt;/span&gt;&lt;/li&gt;&lt;li&gt;&lt;span style=&quot;background-color: initial;&quot;&gt;direct REST calls&lt;/span&gt;&lt;/li&gt;&lt;/ul&gt;" style="text;html=1;strokeColor=none;fillColor=none;align=left;verticalAlign=middle;whiteSpace=wrap;rounded=0;" vertex="1" parent="1">
          <mxGeometry x="360" y="347" width="310" height="30" as="geometry" />
        </mxCell>
      </root>
    </mxGraphModel>
  </diagram>
</mxfile>
